<svg xmlns="http://www.w3.org/2000/svg" width="32" height="32" viewBox="0 0 32 32">
<rect width="100%" height="100%" fill="#0F1B30"/>
<g transform="translate(6.331000000000001, 6)"><path d="M7.271 17.501L7.271 17.501Q6.369 17.501 5.720 17.287Q5.071 17.072 4.659 16.863Q4.246 16.654 4.048 16.654L4.048 16.654Q3.828 16.654 3.685 16.786Q3.542 16.918 3.415 17.088Q3.289 17.259 3.146 17.391Q3.003 17.523 2.794 17.523L2.794 17.523Q2.563 17.523 2.414 17.386Q2.266 17.248 2.211 16.929L2.211 16.929L1.452 13.343Q1.408 13.101 1.512 12.925Q1.617 12.749 1.859 12.672L1.859 12.672Q2.123 12.584 2.321 12.683Q2.519 12.782 2.662 13.068L2.662 13.068Q3.289 14.300 3.998 15.026Q4.708 15.752 5.478 16.060Q6.248 16.368 7.051 16.368L7.051 16.368Q8.173 16.368 8.822 15.785Q9.471 15.202 9.471 14.223L9.471 14.223Q9.482 13.585 9.185 13.073Q8.888 12.562 8.063 12.078Q7.238 11.594 5.621 11.066L5.621 11.066Q3.949 10.527 2.942 9.818Q1.936 9.108 1.485 8.162Q1.034 7.216 1.034 5.962L1.034 5.962Q1.034 4.631 1.666 3.619Q2.299 2.607 3.448 2.041Q4.598 1.474 6.138 1.474L6.138 1.474Q7.128 1.474 7.777 1.678Q8.426 1.881 8.844 2.090Q9.262 2.299 9.537 2.299L9.537 2.299Q9.779 2.299 9.911 2.085Q10.043 1.870 10.197 1.656Q10.351 1.441 10.659 1.441L10.659 1.441Q10.901 1.441 11.060 1.595Q11.220 1.749 11.341 2.167L11.341 2.167L12.375 5.775Q12.463 6.061 12.358 6.287Q12.254 6.512 12.001 6.589L12.001 6.589Q11.748 6.677 11.544 6.573Q11.341 6.468 11.209 6.215L11.209 6.215Q10.527 4.851 9.752 4.065Q8.976 3.278 8.151 2.937Q7.326 2.596 6.479 2.596L6.479 2.596Q5.357 2.596 4.691 3.240Q4.026 3.883 4.026 4.917L4.026 4.917Q4.026 5.544 4.317 6.083Q4.609 6.622 5.423 7.134Q6.237 7.645 7.777 8.217L7.777 8.217Q9.482 8.822 10.489 9.526Q11.495 10.230 11.929 11.116Q12.364 12.001 12.364 13.145L12.364 13.145Q12.364 14.344 11.759 15.334Q11.154 16.324 10.021 16.913Q8.888 17.501 7.271 17.501Z" fill="#F0F2F7"/><path d="M16.357 17.402L16.357 17.402Q15.818 17.402 15.372 17.127Q14.927 16.852 14.668 16.395Q14.410 15.939 14.410 15.411L14.410 15.411Q14.410 14.861 14.668 14.410Q14.927 13.959 15.372 13.690Q15.818 13.420 16.357 13.420L16.357 13.420Q16.918 13.420 17.358 13.690Q17.798 13.959 18.056 14.410Q18.315 14.861 18.315 15.411L18.315 15.411Q18.315 15.939 18.056 16.395Q17.798 16.852 17.358 17.127Q16.918 17.402 16.357 17.402Z" fill="#C8362A"/></g>
</svg>
